<svg xmlns="http://www.w3.org/2000/svg" xmlns:xlink="http://www.w3.org/1999/xlink" version="1.1" id="Layer_1" viewBox="0 0 512 512" xml:space="preserve">
<path style="fill:#FF6243;" d="M149.225,177.984v-47.915h212.84v325.345c0,31.252-25.335,56.586-56.586,56.586H205.81  c-31.252,0-56.586-25.335-56.586-56.586V256v-78.016H149.225z"/>
<path style="opacity:0.39;fill:#CD2A00;enable-background:new    ;" d="M325.652,130.069V418.29  c0,31.252-25.335,56.586-56.586,56.586h-99.669c-5.885,0-11.56-0.9-16.895-2.567c7.186,22.998,28.652,39.69,54.019,39.69h99.669  c31.252,0,56.586-25.335,56.586-56.586V130.069H325.652z"/>
<rect x="177.601" style="fill:#C6C3CB;" width="161.991" height="130.069"/>
<rect x="258.947" style="fill:#77757E;" width="81" height="130.069"/>
<g>
	<rect x="207.266" y="41.974" style="fill:#3E3B43;" width="25.318" height="46.111"/>
	<rect x="286.783" y="41.974" style="fill:#3E3B43;" width="25.318" height="46.111"/>
</g>
<g>
	<circle style="fill:#CD2A00;" cx="296.511" cy="246.554" r="13.231"/>
	<path style="fill:#CD2A00;" d="M259.158,343.228c-24.918,0-45.191-20.272-45.191-45.191V271.74c0-4.329,3.509-7.837,7.837-7.837   c4.328,0,7.837,3.508,7.837,7.837v26.297c0,16.275,13.241,29.517,29.517,29.517s29.517-13.242,29.517-29.517v-38.25   c0-4.329,3.509-7.837,7.837-7.837s7.837,3.508,7.837,7.837v38.25C304.347,322.956,284.075,343.228,259.158,343.228z"/>
	<circle style="fill:#CD2A00;" cx="221.8" cy="256.188" r="14.343"/>
	<circle style="fill:#CD2A00;" cx="259.156" cy="435.743" r="19.947"/>
	<path style="fill:#CD2A00;" d="M259.158,423.63c-4.328,0-7.837-3.508-7.837-7.837V205.672c0-4.329,3.509-7.837,7.837-7.837   c4.328,0,7.837,3.508,7.837,7.837v210.122C266.994,420.122,263.486,423.63,259.158,423.63z"/>
	<polygon style="fill:#CD2A00;" points="239.212,204.568 259.158,174.328 279.103,204.568  "/>
</g>
</svg>